<svg width="134" height="37" viewBox="0 0 134 37" fill="none" xmlns="http://www.w3.org/2000/svg">
<g clip-path="url(#clip0_384:2)">
<rect width="134" height="37" fill="white"/>
<rect x="69" y="5" width="63" height="29" fill="#CD000D"/>
<path d="M5.69824 21.0059C5.28809 21.0059 4.89746 20.9277 4.52637 20.7715C4.16504 20.6055 3.84766 20.3906 3.57422 20.127C3.30078 19.8535 3.08594 19.5361 2.92969 19.1748C2.77344 18.8037 2.69531 18.4131 2.69531 18.0029V11.9971C2.69531 11.5869 2.77344 11.2012 2.92969 10.8398C3.08594 10.4688 3.30078 10.1514 3.57422 9.8877C3.84766 9.61426 4.16504 9.39941 4.52637 9.24316C4.89746 9.07715 5.28809 8.99414 5.69824 8.99414H15.8936C16.3037 8.99414 16.6895 9.07715 17.0508 9.24316C17.4219 9.39941 17.7441 9.61426 18.0176 9.8877C18.291 10.1514 18.5059 10.4688 18.6621 10.8398C18.8184 11.2012 18.8965 11.5869 18.8965 11.9971V14.707H15.8936V11.9971H5.69824V18.0029H15.8936C16.3037 18.0029 16.6895 18.0811 17.0508 18.2373C17.4219 18.3936 17.7441 18.6084 18.0176 18.8818C18.291 19.1553 18.5059 19.4775 18.6621 19.8486C18.8184 20.21 18.8965 20.5957 18.8965 21.0059V26.9971C18.8965 27.4072 18.8184 27.7979 18.6621 28.1689C18.5059 28.5303 18.291 28.8477 18.0176 29.1211C17.7441 29.3945 17.4219 29.6094 17.0508 29.7656C16.6895 29.9219 16.3037 30 15.8936 30H5.40527C4.99512 30 4.60449 29.9219 4.2334 29.7656C3.87207 29.6094 3.55469 29.3945 3.28125 29.1211C3.00781 28.8477 2.79297 28.5303 2.63672 28.1689C2.48047 27.7979 2.40234 27.4072 2.40234 26.9971V24.3018H5.40527V26.9971H15.8936V21.0059H5.69824ZM27.3193 8.99414V30H24.3164V8.99414H27.3193ZM30.9229 8.99414H47.7246V11.9971H40.8252V30H37.8223V11.9971H30.9229V8.99414ZM51.3281 8.99414H66.6357V11.9971H54.3311V18.0029H64.834V21.0059H54.3311V26.9971H66.6357V30H51.3281V8.99414Z" fill="#373A3C"/>
<path d="M74.1357 21.0059C73.7256 21.0059 73.335 20.9277 72.9639 20.7715C72.6025 20.6055 72.2852 20.3906 72.0117 20.127C71.7383 19.8535 71.5234 19.5361 71.3672 19.1748C71.2109 18.8037 71.1328 18.4131 71.1328 18.0029V11.9971C71.1328 11.5869 71.2109 11.2012 71.3672 10.8398C71.5234 10.4688 71.7383 10.1514 72.0117 9.8877C72.2852 9.61426 72.6025 9.39941 72.9639 9.24316C73.335 9.07715 73.7256 8.99414 74.1357 8.99414H84.3311C84.7412 8.99414 85.127 9.07715 85.4883 9.24316C85.8594 9.39941 86.1816 9.61426 86.4551 9.8877C86.7285 10.1514 86.9434 10.4688 87.0996 10.8398C87.2559 11.2012 87.334 11.5869 87.334 11.9971V14.707H84.3311V11.9971H74.1357V18.0029H84.3311C84.7412 18.0029 85.127 18.0811 85.4883 18.2373C85.8594 18.3936 86.1816 18.6084 86.4551 18.8818C86.7285 19.1553 86.9434 19.4775 87.0996 19.8486C87.2559 20.21 87.334 20.5957 87.334 21.0059V26.9971C87.334 27.4072 87.2559 27.7979 87.0996 28.1689C86.9434 28.5303 86.7285 28.8477 86.4551 29.1211C86.1816 29.3945 85.8594 29.6094 85.4883 29.7656C85.127 29.9219 84.7412 30 84.3311 30H73.8428C73.4326 30 73.042 29.9219 72.6709 29.7656C72.3096 29.6094 71.9922 29.3945 71.7188 29.1211C71.4453 28.8477 71.2305 28.5303 71.0742 28.1689C70.918 27.7979 70.8398 27.4072 70.8398 26.9971V24.3018H73.8428V26.9971H84.3311V21.0059H74.1357ZM92.7539 8.99414H108.062V11.9971H95.7568V18.0029H106.26V21.0059H95.7568V26.9971H108.062V30H92.7539V8.99414ZM112.559 11.9971C112.559 11.5869 112.637 11.2012 112.793 10.8398C112.949 10.4688 113.164 10.1514 113.438 9.8877C113.711 9.61426 114.028 9.39941 114.39 9.24316C114.761 9.07715 115.151 8.99414 115.562 8.99414H126.958C127.368 8.99414 127.754 9.07715 128.115 9.24316C128.486 9.39941 128.809 9.61426 129.082 9.8877C129.355 10.1514 129.57 10.4688 129.727 10.8398C129.883 11.2012 129.961 11.5869 129.961 11.9971V14.707H126.958V11.9971H115.562V26.9971H126.958V24.3018H129.961V26.9971C129.961 27.4072 129.883 27.7979 129.727 28.1689C129.57 28.5303 129.355 28.8477 129.082 29.1211C128.809 29.3945 128.486 29.6094 128.115 29.7656C127.754 29.9219 127.368 30 126.958 30H115.562C115.151 30 114.761 29.9219 114.39 29.7656C114.028 29.6094 113.711 29.3945 113.438 29.1211C113.164 28.8477 112.949 28.5303 112.793 28.1689C112.637 27.7979 112.559 27.4072 112.559 26.9971V11.9971Z" fill="white"/>
</g>
<defs>
<clipPath id="clip0_384:2">
<rect width="134" height="37" fill="white"/>
</clipPath>
</defs>
</svg>
